<?xml version="1.0" ?>
<svg data-name="Layer 2" fill="white"  id="Layer_2" viewBox="0 0 250 250" xmlns="http://www.w3.org/2000/svg">
<title/><path d="M101,87.93c-30.63,0-57.5,26.87-57.5,57.5a4,4,0,0,0,8,0c0-26.37,23.13-49.5,49.5-49.5a4,4,0,0,0,0-8Z"/>
<path d="M184.85,114.67A87.51,87.51,0,1,0,103.5,234.43a86.6,86.6,0,0,0,35.92-7.7,61.49,61.49,0,1,0,45.43-112.06ZM132,221.18A79.51,79.51,0,1,1,103.5,67.43a79.84,79.84,0,0,1,72.16,46.08c-1-.06-2.1-.08-3.16-.08-.82,0-1.62,0-2.43.06A74.54,74.54,0,1,0,128,217.28c.34.37.7.74,1,1.09l0,0c.63.63,1.28,1.25,1.94,1.85l.28.26Zm27.3-106.31-.71.17c-.63.14-1.25.29-1.87.45l-.74.21c-.89.25-1.78.52-2.66.81-.54.18-1.09.36-1.63.56l-.92.34c-.61.23-1.22.47-1.82.72l-.7.3c-.73.31-1.45.64-2.16,1l-.31.14a61.49,61.49,0,0,0-28.68,28.73v0q-.61,1.27-1.17,2.58c-.05.11-.09.22-.13.32-.33.77-.63,1.55-.93,2.33l-.21.59c-.25.7-.49,1.41-.72,2.11-.08.28-.17.55-.25.83-.2.64-.38,1.28-.55,1.93l-.27,1c-.15.6-.28,1.2-.42,1.8l-.24,1.15c-.11.58-.21,1.16-.31,1.74-.07.41-.14.81-.2,1.22-.09.59-.16,1.17-.23,1.76,0,.41-.1.81-.14,1.22q-.09,1-.15,2c0,.35-.06.7-.07,1,0,1-.08,2-.08,3s0,1.88.07,2.82c0,.15,0,.3,0,.45s0,.36,0,.55c0,.59.08,1.18.14,1.78,0,.31,0,.63.08.94,0,.1,0,.2,0,.3,0,.5.12,1,.19,1.5s.13,1,.21,1.46c0,.13,0,.26.07.4s.07.4.11.6c.07.38.13.76.2,1.14s.15.71.23,1.07c0,.11,0,.22.08.34l.06.26c.07.3.13.61.21.91.13.55.27,1.1.42,1.64,0,.06,0,.12,0,.17.06.24.13.46.2.69.16.59.33,1.17.52,1.75,0,.1.07.19.1.29l.06.17c0,.14.09.27.13.4.3.87.61,1.73.94,2.59l.18.44c.1.26.19.51.3.76.18.46.38.9.58,1.35s.36.81.55,1.21l.54,1.15c.18.34.35.69.53,1l.25.47,0,.05.4.77c.27.49.56,1,.84,1.47l.23.4c.52.88,1.06,1.75,1.63,2.6l.09.13c0,.07.1.14.14.22s.11.15.16.22c.28.41.56.83.85,1.24a66.5,66.5,0,1,1,39-96.25l-.27.06C160.58,114.6,159.93,114.73,159.28,114.87ZM172.5,228.43a53.23,53.23,0,0,1-31.4-10.22l-1-.73c-.46-.35-.92-.7-1.37-1.07l-.82-.69c-.46-.39-.93-.79-1.39-1.2a.94.94,0,0,0-.1-.1c-1-.94-2-1.92-3-2.94-.24-.25-.49-.51-.72-.77-.37-.41-.73-.82-1.08-1.24s-.57-.68-.85-1-.61-.77-.91-1.16-.68-.91-1-1.37l-.53-.75-.18-.26c-.49-.72-1-1.46-1.41-2.2l-.14-.22a1.09,1.09,0,0,1-.08-.15c-.48-.8-.94-1.62-1.38-2.44-.08-.16-.16-.32-.25-.48-.38-.75-.74-1.49-1.09-2.25l-.27-.6c-.36-.82-.71-1.65-1-2.49l-.09-.23c-.36-.93-.68-1.86-1-2.81-.06-.19-.11-.37-.16-.56-.23-.75-.45-1.51-.64-2.28-.07-.25-.13-.5-.19-.75-.21-.85-.4-1.71-.56-2.57v0c0-.18-.07-.37-.1-.56-.14-.8-.27-1.6-.37-2.41,0-.17,0-.34-.07-.51s0-.3-.05-.45c-.08-.71-.14-1.42-.2-2.13,0-.08,0-.15,0-.23,0-.23,0-.46,0-.7,0-1-.09-2-.09-2.93s0-1.76.07-2.63c0-.61.08-1.22.13-1.82,0-.24,0-.48,0-.72a53.87,53.87,0,0,1,46.13-47.84h.08c.83-.11,1.66-.21,2.5-.28,1.5-.12,3-.2,4.54-.2q1.22,0,2.43.06l1.19.07,1.13.09,1.52.16.74.09q.84.1,1.68.24a53.5,53.5,0,0,1-8.69,106.29Z"/><path d="M20,45.43H187a4,4,0,0,0,4-4v-22a4,4,0,0,0-3.83-4c-57.73-2.48-114-2.48-167.36,0a4,4,0,0,0-3.81,4v22A4,4,0,0,0,20,45.43Zm4-22.18C74.77,21,128.22,21,183,23.26V37.43H24Z"/>
<path d="M93.06,48.43a4,4,0,0,0,0,8h20.88a4,4,0,0,0,0-8Z"/>
</svg>