<svg width="179" height="28" viewBox="0 0 179 28" fill="none" xmlns="http://www.w3.org/2000/svg">
<path d="M45.136 21.7175L41.6619 15.8164H38.4695V21.7175H35.77V5.51846H42.3426C43.8137 5.51846 45.0578 6.02758 46.0749 7.04581C47.1078 8.0486 47.6242 9.2751 47.6242 10.7253C47.6242 11.759 47.319 12.7078 46.7087 13.5717C46.1141 14.4202 45.3315 15.0373 44.3614 15.423L48.0937 21.7175H45.136ZM38.4695 8.01775V13.4329H42.3426C43.0626 13.4329 43.6729 13.1706 44.1736 12.6461C44.6743 12.1215 44.9247 11.4813 44.9247 10.7253C44.9247 9.96935 44.6743 9.32911 44.1736 8.80456C43.6729 8.28001 43.0626 8.01775 42.3426 8.01775H38.4695ZM51.378 16.9967C51.5658 17.876 51.9961 18.5548 52.669 19.0331C53.3418 19.4959 54.1634 19.7274 55.1338 19.7274C56.4795 19.7274 57.4889 19.249 58.1619 18.2926L60.251 19.4959C59.0929 21.1776 57.3793 22.0184 55.1103 22.0184C53.201 22.0184 51.6597 21.4475 50.486 20.3059C49.3123 19.1488 48.7255 17.6909 48.7255 15.9322C48.7255 14.2042 49.3044 12.7618 50.4625 11.6047C51.6205 10.4322 53.1071 9.84593 54.9225 9.84593C56.6438 9.84593 58.0523 10.4399 59.1478 11.6278C60.2588 12.8158 60.8144 14.2583 60.8144 15.9553C60.8144 16.2176 60.783 16.5647 60.7205 16.9967H51.378ZM51.3545 14.9602H58.2558C58.0835 14.0191 57.6844 13.3095 57.0586 12.8312C56.4483 12.3529 55.7284 12.1138 54.899 12.1138C53.9601 12.1138 53.1775 12.3684 52.5517 12.8775C51.9256 13.3866 51.5266 14.0808 51.3545 14.9602ZM64.8636 13.3403C64.8636 13.726 65.0748 14.0345 65.4974 14.266C65.9354 14.4819 66.4598 14.6748 67.0701 14.8445C67.6959 14.9988 68.322 15.1839 68.948 15.3999C69.5738 15.6159 70.0982 15.9861 70.5207 16.5107C70.9588 17.0198 71.178 17.6678 71.178 18.4546C71.178 19.5654 70.7398 20.4371 69.8635 21.0696C69.0027 21.702 67.9152 22.0184 66.6006 22.0184C65.4425 22.0184 64.4488 21.7793 63.6195 21.301C62.79 20.8227 62.1876 20.1594 61.812 19.3108L63.9951 18.0612C64.4019 19.172 65.2704 19.7274 66.6006 19.7274C67.9307 19.7274 68.5959 19.2953 68.5959 18.4314C68.5959 18.0612 68.3767 17.7603 67.9386 17.5289C67.5161 17.2975 66.9917 17.1047 66.3659 16.9504C65.7556 16.7807 65.1373 16.5878 64.5115 16.3718C63.8855 16.1559 63.3533 15.801 62.9153 15.3073C62.4927 14.7982 62.2815 14.158 62.2815 13.3866C62.2815 12.3221 62.6883 11.4658 63.5021 10.8179C64.3315 10.1699 65.3565 9.84593 66.5772 9.84593C67.5473 9.84593 68.4081 10.0619 69.1593 10.4939C69.9259 10.9104 70.5128 11.4967 70.9198 12.2527L68.7837 13.4329C68.3767 12.5535 67.6412 12.1138 66.5772 12.1138C66.092 12.1138 65.6852 12.2218 65.3565 12.4378C65.0279 12.6383 64.8636 12.9392 64.8636 13.3403ZM81.1796 10.1468H83.7147V21.7175H81.1796V20.2365C80.4127 21.4244 79.2 22.0184 77.5411 22.0184C76.1954 22.0184 75.1077 21.5942 74.2783 20.7456C73.449 19.897 73.0342 18.7323 73.0342 17.2512V10.1468H75.5694V16.9967C75.5694 17.8606 75.8041 18.524 76.2736 18.9868C76.743 19.4497 77.3846 19.6811 78.1984 19.6811C79.0904 19.6811 79.8103 19.411 80.358 18.8711C80.9056 18.3157 81.1796 17.4749 81.1796 16.3487V10.1468ZM86.6792 21.7175V4.82422H89.2144V21.7175H86.6792ZM98.707 12.5535H95.7962V18.1075C95.7962 18.5858 95.9058 18.9329 96.1249 19.1488C96.3441 19.3494 96.6647 19.4652 97.0873 19.4959C97.5255 19.5114 98.0654 19.5036 98.707 19.4728V21.7175C96.7666 21.949 95.3737 21.787 94.5286 21.2316C93.6836 20.6607 93.2611 19.6193 93.2611 18.1075V12.5535H91.1015V10.1468H93.2611V7.64749L95.7962 6.90696V10.1468H98.707V12.5535ZM103.891 21.4861C103.546 21.8256 103.132 21.9952 102.647 21.9952C102.162 21.9952 101.747 21.8256 101.403 21.4861C101.058 21.1467 100.886 20.7379 100.886 20.2596C100.886 19.7813 101.051 19.3726 101.379 19.0331C101.723 18.6937 102.146 18.524 102.647 18.524C103.132 18.524 103.546 18.6937 103.891 19.0331C104.235 19.3726 104.407 19.7813 104.407 20.2596C104.407 20.7379 104.235 21.1467 103.891 21.4861ZM112.508 22.0184C110.928 22.0184 109.582 21.6636 108.471 20.9539C107.376 20.2441 106.609 19.2722 106.17 18.038L108.494 16.6958C109.152 18.5164 110.513 19.4265 112.579 19.4265C113.596 19.4265 114.355 19.2337 114.856 18.848C115.372 18.4469 115.63 17.93 115.63 17.2975C115.63 16.6341 115.357 16.1327 114.809 15.7933C114.261 15.4385 113.291 15.0528 111.898 14.6362C111.116 14.4048 110.482 14.1888 109.997 13.9883C109.512 13.7877 108.995 13.51 108.447 13.1552C107.915 12.7849 107.516 12.3298 107.25 11.7898C106.984 11.2499 106.851 10.6173 106.851 9.89221C106.851 8.45744 107.368 7.3235 108.4 6.49041C109.433 5.64188 110.677 5.21762 112.133 5.21762C113.447 5.21762 114.598 5.5339 115.583 6.16643C116.569 6.79896 117.328 7.67063 117.86 8.78142L115.583 10.0773C114.895 8.56544 113.745 7.80948 112.133 7.80948C111.35 7.80948 110.724 7.99461 110.255 8.36487C109.785 8.7197 109.551 9.20568 109.551 9.82279C109.551 10.4245 109.785 10.9027 110.255 11.2576C110.74 11.597 111.609 11.9595 112.86 12.3452C113.486 12.5458 113.94 12.7 114.222 12.808C114.519 12.9006 114.926 13.0549 115.443 13.2709C115.975 13.4869 116.374 13.7029 116.64 13.9188C116.906 14.1348 117.188 14.4048 117.485 14.7288C117.798 15.0528 118.017 15.423 118.142 15.8396C118.267 16.2561 118.33 16.7267 118.33 17.2512C118.33 18.7168 117.79 19.8817 116.71 20.7456C115.646 21.5942 114.245 22.0184 112.508 22.0184ZM126.352 22.0184C124.584 22.0184 123.105 21.4322 121.915 20.2596C120.742 19.0871 120.155 17.6446 120.155 15.9322C120.155 14.2042 120.742 12.7618 121.915 11.6047C123.105 10.4322 124.584 9.84593 126.352 9.84593C127.494 9.84593 128.535 10.1159 129.474 10.6559C130.413 11.1958 131.117 11.921 131.587 12.8312L129.404 14.0808C129.137 13.5254 128.731 13.0935 128.183 12.7849C127.651 12.4609 127.033 12.2989 126.329 12.2989C125.296 12.2989 124.427 12.6461 123.723 13.3403C123.034 14.0345 122.69 14.8985 122.69 15.9322C122.69 16.9658 123.034 17.8298 123.723 18.524C124.427 19.2183 125.296 19.5654 126.329 19.5654C127.017 19.5654 127.635 19.4034 128.183 19.0794C128.746 18.7554 129.169 18.3234 129.451 17.7835L131.634 19.01C131.133 19.9356 130.413 20.6685 129.474 21.2084C128.535 21.7483 127.494 22.0184 126.352 22.0184ZM139.64 9.84593C140.985 9.84593 142.073 10.2702 142.902 11.1187C143.732 11.9672 144.146 13.132 144.146 14.6131V21.7175H141.611V14.8676C141.611 14.0037 141.377 13.3403 140.907 12.8775C140.438 12.4146 139.796 12.1832 138.982 12.1832C138.09 12.1832 137.37 12.4609 136.823 13.0163C136.275 13.5563 136.001 14.3894 136.001 15.5156V21.7175H133.466V5.51846H136.001V11.6278C136.768 10.4399 137.981 9.84593 139.64 9.84593ZM152.416 22.0184C150.695 22.0184 149.231 21.4322 148.026 20.2596C146.821 19.0871 146.219 17.6446 146.219 15.9322C146.219 14.2197 146.821 12.7772 148.026 11.6047C149.231 10.4322 150.695 9.84593 152.416 9.84593C154.153 9.84593 155.616 10.4322 156.805 11.6047C158.011 12.7772 158.613 14.2197 158.613 15.9322C158.613 17.6446 158.011 19.0871 156.805 20.2596C155.616 21.4322 154.153 22.0184 152.416 22.0184ZM149.81 18.5471C150.514 19.2414 151.383 19.5885 152.416 19.5885C153.449 19.5885 154.317 19.2414 155.021 18.5471C155.726 17.8529 156.078 16.9812 156.078 15.9322C156.078 14.8831 155.726 14.0114 155.021 13.3172C154.317 12.6229 153.449 12.2758 152.416 12.2758C151.383 12.2758 150.514 12.6229 149.81 13.3172C149.106 14.0114 148.754 14.8831 148.754 15.9322C148.754 16.9812 149.106 17.8529 149.81 18.5471ZM166.445 22.0184C164.724 22.0184 163.26 21.4322 162.056 20.2596C160.85 19.0871 160.248 17.6446 160.248 15.9322C160.248 14.2197 160.85 12.7772 162.056 11.6047C163.26 10.4322 164.724 9.84593 166.445 9.84593C168.182 9.84593 169.645 10.4322 170.835 11.6047C172.04 12.7772 172.642 14.2197 172.642 15.9322C172.642 17.6446 172.04 19.0871 170.835 20.2596C169.645 21.4322 168.182 22.0184 166.445 22.0184ZM163.84 18.5471C164.544 19.2414 165.412 19.5885 166.445 19.5885C167.478 19.5885 168.346 19.2414 169.051 18.5471C169.755 17.8529 170.107 16.9812 170.107 15.9322C170.107 14.8831 169.755 14.0114 169.051 13.3172C168.346 12.6229 167.478 12.2758 166.445 12.2758C165.412 12.2758 164.544 12.6229 163.84 13.3172C163.135 14.0114 162.783 14.8831 162.783 15.9322C162.783 16.9812 163.135 17.8529 163.84 18.5471ZM174.934 21.7175V4.82422H177.47V21.7175H174.934Z" fill="white"/>
<path fill-rule="evenodd" clip-rule="evenodd" d="M0 3.31444C0 2.07397 1.02004 1.06836 2.27831 1.06836H23.5426C24.801 1.06836 25.821 2.07397 25.821 3.31444V24.2779C25.821 25.5185 24.801 26.5241 23.5426 26.5241H2.27831C1.02004 26.5241 0 25.5185 0 24.2779V3.31444ZM4.93636 3.76367C3.67808 3.76367 2.65804 4.76928 2.65804 6.00976V21.7323C2.65804 22.9729 3.67808 23.9785 4.93636 23.9785H20.8847C22.1428 23.9785 23.1629 22.9729 23.1629 21.7323V6.00976C23.1629 4.76928 22.1428 3.76367 20.8847 3.76367H4.93636ZM4.86041 4.6621C4.23128 4.6621 3.72125 5.16491 3.72125 5.78516V22.0319C3.72125 22.6521 4.23128 23.155 4.86041 23.155H21.1125C21.7416 23.155 22.2515 22.6521 22.2515 22.0319V5.78516C22.2515 5.16491 21.7416 4.6621 21.1125 4.6621H4.86041ZM8.90672 12.2329L10.62 15.1439H12.4305L10.5471 11.9814C11.0413 11.7577 11.4382 11.4264 11.7379 10.9871C12.0377 10.5399 12.1875 10.0567 12.1875 9.53761C12.1875 8.77095 11.912 8.1161 11.3612 7.57304C10.8104 7.02999 10.1421 6.75846 9.35631 6.75846H5.95401V15.1439H7.63086V12.2329H8.90672ZM7.63086 10.7834V8.30376H9.35631C9.67223 8.30376 9.94359 8.42356 10.1704 8.66315C10.3973 8.90273 10.5107 9.19419 10.5107 9.53761C10.5107 9.88105 10.3973 10.1765 10.1704 10.4241C9.94359 10.6637 9.67223 10.7834 9.35631 10.7834H7.63086Z" fill="white"/>
</svg>

